<?xml version="1.0" encoding="UTF-8" ?>
<svg version="1.1" width="16" height="16" xmlns="http://www.w3.org/2000/svg" shape-rendering="crispEdges">
<rect x="8" y="1" width="2" height="1" fill="#7A3045" />
<rect x="10" y="1" width="2" height="1" fill="#165A4C" />
<rect x="7" y="2" width="2" height="1" fill="#7A3045" />
<rect x="6" y="3" width="2" height="2" fill="#7A3045" />
<rect x="5" y="4" width="1" height="3" fill="#7A3045" />
<rect x="8" y="4" width="1" height="3" fill="#7A3045" />
<rect x="4" y="6" width="1" height="2" fill="#7A3045" />
<rect x="9" y="6" width="1" height="2" fill="#7A3045" />
<rect x="3" y="8" width="1" height="1" fill="#ED8099" />
<rect x="4" y="8" width="2" height="1" fill="#CF657F" />
<rect x="6" y="8" width="1" height="2" fill="#AE2334" />
<rect x="8" y="8" width="1" height="1" fill="#ED8099" />
<rect x="9" y="8" width="2" height="1" fill="#CF657F" />
<rect x="11" y="8" width="1" height="4" fill="#AE2334" />
<rect x="2" y="9" width="1" height="1" fill="#ED8099" />
<rect x="3" y="9" width="1" height="1" fill="#AE2334" />
<rect x="4" y="9" width="1" height="1" fill="#CF657F" />
<rect x="5" y="9" width="1" height="3" fill="#AE2334" />
<rect x="7" y="9" width="1" height="1" fill="#ED8099" />
<rect x="8" y="9" width="1" height="1" fill="#AE2334" />
<rect x="9" y="9" width="1" height="1" fill="#CF657F" />
<rect x="10" y="9" width="1" height="4" fill="#AE2334" />
<rect x="12" y="9" width="1" height="2" fill="#AE2334" />
<rect x="1" y="10" width="1" height="1" fill="#ED8099" />
<rect x="2" y="10" width="1" height="1" fill="#AE2334" />
<rect x="3" y="10" width="1" height="1" fill="#CF657F" />
<rect x="4" y="10" width="1" height="3" fill="#AE2334" />
<rect x="6" y="10" width="1" height="1" fill="#ED8099" />
<rect x="7" y="10" width="1" height="1" fill="#AE2334" />
<rect x="8" y="10" width="1" height="1" fill="#CF657F" />
<rect x="9" y="10" width="1" height="4" fill="#AE2334" />
<rect x="13" y="10" width="1" height="3" fill="#7A3045" />
<rect x="1" y="11" width="2" height="1" fill="#CF657F" />
<rect x="3" y="11" width="1" height="3" fill="#AE2334" />
<rect x="6" y="11" width="2" height="1" fill="#CF657F" />
<rect x="8" y="11" width="1" height="3" fill="#AE2334" />
<rect x="12" y="11" width="1" height="1" fill="#7A3045" />
<rect x="1" y="12" width="1" height="1" fill="#CF657F" />
<rect x="2" y="12" width="1" height="2" fill="#AE2334" />
<rect x="5" y="12" width="1" height="1" fill="#7A3045" />
<rect x="6" y="12" width="1" height="1" fill="#CF657F" />
<rect x="7" y="12" width="1" height="2" fill="#AE2334" />
<rect x="11" y="12" width="1" height="1" fill="#7A3045" />
<rect x="12" y="12" width="1" height="1" fill="#AE2334" />
<rect x="4" y="13" width="1" height="2" fill="#7A3045" />
<rect x="5" y="13" width="1" height="1" fill="#AE2334" />
<rect x="6" y="13" width="1" height="2" fill="#7A3045" />
<rect x="10" y="13" width="1" height="2" fill="#7A3045" />
<rect x="11" y="13" width="1" height="1" fill="#AE2334" />
<rect x="12" y="13" width="1" height="1" fill="#7A3045" />
<rect x="3" y="14" width="1" height="1" fill="#7A3045" />
<rect x="5" y="14" width="1" height="1" fill="#7A3045" />
<rect x="8" y="14" width="2" height="1" fill="#7A3045" />
<rect x="11" y="14" width="1" height="1" fill="#7A3045" />
</svg>